<svg id="Capa_1" enable-background="new 0 0 512 512" height="512" viewBox="0 0 512 512" width="512" xmlns="http://www.w3.org/2000/svg"><g><path d="m279.9 247.29c-4.142 0-7.5 3.358-7.5 7.5 0 9.139-7.435 16.574-16.574 16.574s-16.574-7.435-16.574-16.574c0-4.142-3.358-7.5-7.5-7.5s-7.5 3.358-7.5 7.5c0 17.41 14.164 31.574 31.574 31.574s31.574-14.164 31.574-31.574c0-4.143-3.358-7.5-7.5-7.5z"/><path d="m200.495 190.981c-4.142 0-7.5 3.358-7.5 7.5v20.875c0 4.142 3.358 7.5 7.5 7.5s7.5-3.358 7.5-7.5v-20.875c0-4.142-3.358-7.5-7.5-7.5z"/><path d="m311.157 190.981c-4.142 0-7.5 3.358-7.5 7.5v20.875c0 4.142 3.358 7.5 7.5 7.5s7.5-3.358 7.5-7.5v-20.875c0-4.142-3.358-7.5-7.5-7.5z"/><path d="m363.871 350.5h-53.403v-22.258c31.858-16.135 55.618-46.016 63.438-81.791 23.14-2.307 41.271-21.888 41.271-45.625v-.236c0-13.499-5.866-25.651-15.179-34.049.857-1.219 1.365-2.702 1.365-4.305v-78.301c0-13.372-3.054-26.157-9.077-38-1.878-3.692-6.392-5.164-10.085-3.285-3.692 1.877-5.163 6.393-3.285 10.085 4.941 9.716 7.447 20.214 7.447 31.2v70.801c-159.716 0-149.9.275-156.69-.614-30.502-4.046-55.048-27.751-59.887-58.279-.532-3.587-.772-7.251-.869-11.331v-20.471c0-27.05 22.028-49.041 49.041-49.041h99.47c15.054 0 29.354 4.763 41.353 13.775 3.312 2.487 8.013 1.819 10.501-1.493 2.487-3.312 1.819-8.013-1.493-10.501-14.619-10.978-32.033-16.781-50.362-16.781h-99.47c-25.152 0-46.954 14.582-57.423 35.729-33.017 5.212-57.017 35.701-52.994 70.047l6.853 58.49c-10.885 8.392-17.917 21.549-17.917 36.324v.236c0 23.748 18.148 43.335 41.303 45.627 7.846 35.892 31.737 65.848 63.753 81.946v22.101h-53.403c-33.89 0-61.46 27.571-61.46 61.46v24.21c0 4.142 3.358 7.5 7.5 7.5s7.5-3.358 7.5-7.5v-24.21c0-25.618 20.842-46.46 46.46-46.46h53.403v.867c0 30.034 24.434 54.468 54.468 54.468s54.468-24.434 54.468-54.468v-.867h53.403c25.618 0 46.46 20.842 46.46 46.46v85.04h-308.663v-25.83c0-4.142-3.358-7.5-7.5-7.5s-7.5 3.358-7.5 7.5v33.33c0 4.142 3.358 7.5 7.5 7.5h323.663c4.142 0 7.5-3.358 7.5-7.5v-92.54c.001-33.889-27.57-61.46-61.46-61.46zm12.385-179.978c13.686 3.154 23.92 15.439 23.92 30.069v.236c0 14.631-10.236 26.916-23.923 30.07.812-9.567.542-53.969.003-60.375zm-264.78 30.305v-.236c0-14.648 10.255-26.922 23.941-30.058-.444 5.391-.967 48.797.015 60.371-13.703-3.142-23.956-15.435-23.956-30.077zm26.264-45.861c-1 .136-4.42.386-9.116 1.861l-6.186-52.795c-2.782-23.744 11.939-44.604 32.523-51.559-1.214 6.626-1.867 33.928.019 45.776.586 3.888 1.461 7.794 2.779 11.964-9.354 12.947-16.406 28.038-20.019 44.753zm157.728 211.401c0 21.763-17.705 39.468-39.468 39.468s-39.468-17.705-39.468-39.468c0-10.251 0-17.839 0-31.658 25.341 8.677 53.688 8.612 78.936-.112zm4.377-49.762c-62.144 28.461-137.169-9.178-148.479-78.968-2.433-15.088-1.774-63.128.041-74.186 2.13-12.978 6.742-25.502 13.493-36.811 12.108 21.337 33.626 37.285 59.104 41.781 11.369 2.031 9.008 1.315 137.093 1.315.462 4.463 1.704 52.549-.781 67.925-5.458 33.621-27.221 63.711-60.471 78.944z"/></g></svg>