<svg id="Capa_1" enable-background="new 0 0 512.023 512.023" height="512" viewBox="0 0 512.023 512.023" width="512" xmlns="http://www.w3.org/2000/svg"><path d="m441.008 0c-37.589 0-68.17 30.581-68.17 68.17v49.803l-16.251 16.251c-2.144-15.92-9.308-31.287-21.518-43.497l-60.563-60.564-29.083 29.084c-29.622 29.621-29.622 77.819 0 107.44l39.35 39.351-34.286 34.286c-2.144-15.92-9.308-31.287-21.518-43.497l-60.563-60.564-29.084 29.084c-29.622 29.621-29.622 77.819 0 107.44l39.35 39.351-34.285 34.285c-2.144-15.92-9.308-31.287-21.518-43.497l-60.564-60.564-29.083 29.084c-29.622 29.622-29.622 77.819 0 107.44l39.35 39.351-72.572 72.573 21.213 21.213 72.572-72.572 39.351 39.35c14.811 14.811 34.266 22.216 53.72 22.216s38.91-7.405 53.72-22.216l29.084-29.083-60.564-60.564c-12.209-12.21-27.576-19.374-43.496-21.518l34.285-34.285 39.351 39.35c14.811 14.811 34.265 22.216 53.72 22.216s38.91-7.405 53.72-22.216l29.084-29.084-60.564-60.563c-12.21-12.21-27.576-19.374-43.496-21.518l34.286-34.286 39.351 39.35c14.813 14.813 34.263 22.216 53.72 22.216 19.452 0 38.911-7.407 53.72-22.216l29.084-29.084-60.564-60.563c-12.209-12.21-27.577-19.374-43.497-21.518l16.251-16.251h49.803c37.589 0 68.17-30.581 68.17-68.17v-71.014zm-135.023 184.824-39.351-39.35c-17.924-17.924-17.924-47.09 0-65.014l7.87-7.871 39.351 39.35c17.924 17.925 17.924 47.09 0 65.015zm-106.1 106.101-39.351-39.351c-17.924-17.924-17.924-47.09 0-65.014l7.871-7.871 39.351 39.351c17.924 17.924 17.924 47.09 0 65.014zm-106.1 106.1-39.351-39.35c-17.924-17.925-17.924-47.09 0-65.015l7.871-7.87 39.351 39.35c17.924 17.924 17.924 47.09 0 65.014zm94.098 13.342 39.35 39.351-7.87 7.871c-17.925 17.924-47.09 17.924-65.015 0l-39.35-39.351 7.871-7.871c17.925-17.924 47.089-17.923 65.014 0zm106.1-106.1 39.351 39.351-7.871 7.871c-17.925 17.924-47.09 17.924-65.014 0l-39.351-39.351 7.871-7.871c17.925-17.924 47.089-17.923 65.014 0zm106.1-106.1 39.35 39.351-7.871 7.871c-17.925 17.924-47.09 17.923-65.014 0l-39.35-39.351 7.87-7.871c17.926-17.924 47.091-17.924 65.015 0zm81.94-127.152c0 21.047-17.123 38.17-38.17 38.17h-41.016v-41.015c0-21.047 17.123-38.17 38.17-38.17h41.015v41.015z"/></svg>