<svg id="Layer_1" enable-background="new 0 0 511.977 511.977" height="512" viewBox="0 0 511.977 511.977" width="512" xmlns="http://www.w3.org/2000/svg"><g id="XMLID_1657_"><g id="XMLID_52_"><path id="XMLID_811_" d="m509.914 204.481c-.928-3.435-3.61-6.118-7.046-7.046-34.004-9.183-85.009 15.092-112.769 42.853-13.725 13.725-20.5 27.175-23.15 40.304-11.852 7.99-24.896 13.815-38.609 17.314 17.933-25.028 28.845-54.153 31.759-85.003l13.573-4.3c5.265-1.668 8.181-7.288 6.513-12.554-1.668-5.265-7.289-8.18-12.554-6.513l-6.841 2.167c-1.434-21.958-18.646-39.17-40.605-40.605l2.167-6.84c1.668-5.266-1.248-10.886-6.513-12.554-5.266-1.67-10.886 1.248-12.554 6.513l-4.299 13.569c-30.849 2.915-59.975 13.829-85.003 31.761 3.499-13.712 9.324-26.756 17.315-38.608 13.129-2.65 26.579-9.424 40.303-23.148 27.76-27.761 52.037-78.77 42.852-112.771-.929-3.435-3.611-6.118-7.047-7.046-34.003-9.18-85.009 15.093-112.769 42.853-14.235 14.236-20.984 28.174-23.417 41.767-21.323 30.357-30.639 67.245-26.237 104.153l8.307 69.643c-3.952 9.717-7.033 19.796-9.195 30.117l-12.975-12.977c-10.554-10.554-26.022-14.557-40.372-10.444-5.31 1.521-8.38 7.059-6.859 12.368 1.521 5.308 7.058 8.378 12.368 6.858 7.365-2.111 15.304-.056 20.721 5.36l13.896 13.896c-3.977 1.6-7.702 4.007-10.919 7.224-3.169 3.169-5.605 6.874-7.235 10.908l-9.065-9.064c-10.554-10.554-26.022-14.554-40.373-10.443-5.309 1.522-8.379 7.06-6.857 12.369 1.522 5.308 7.061 8.38 12.368 6.857 7.363-2.112 15.303-.058 20.72 5.359l9.076 9.075c-3.977 1.6-7.702 4.007-10.919 7.224-3.169 3.169-5.605 6.874-7.235 10.908l-2.787-2.787c-10.554-10.554-26.023-14.553-40.373-10.443-5.309 1.522-8.379 7.06-6.857 12.369s7.06 8.38 12.368 6.857c7.363-2.112 15.303-.058 20.72 5.359l2.798 2.798c-3.977 1.6-7.702 4.007-10.92 7.224-3.301 3.302-5.803 7.186-7.431 11.416l-23.506-.365c-9.837-.174-18.624 5.589-22.45 14.626-3.825 9.037-1.813 19.359 5.125 26.299l17.417 17.416c4.548 4.549 10.698 7.02 16.979 7.019 2.085 0 4.186-.271 6.246-.831l15.576-4.221-4.222 15.576c-2.241 8.268.13 17.166 6.188 23.225l17.417 17.417c4.604 4.604 10.698 7.039 16.917 7.039 3.154 0 6.341-.627 9.381-1.914 9.037-3.825 14.778-12.637 14.626-22.449l-.373-24.054c4.021-1.6 7.789-4.02 11.038-7.27 3.217-3.217 5.624-6.942 7.224-10.918l3.184 3.184c5.417 5.416 7.47 13.355 5.36 20.719-1.522 5.31 1.548 10.847 6.857 12.369.921.264 1.848.39 2.76.39 4.348 0 8.35-2.859 9.608-7.247 4.113-14.349.111-29.818-10.443-40.373l-3.184-3.184c3.977-1.6 7.702-4.007 10.919-7.224 3.169-3.169 5.605-6.875 7.235-10.908l9.451 9.45c5.417 5.416 7.471 13.355 5.36 20.719-1.522 5.31 1.548 10.847 6.857 12.369.921.264 1.848.39 2.76.39 4.348 0 8.35-2.859 9.608-7.247 4.113-14.349.111-29.818-10.444-40.373l-9.461-9.461c3.977-1.6 7.701-4.007 10.919-7.224 3.169-3.169 5.605-6.875 7.235-10.908l14.271 14.271c5.417 5.416 7.471 13.355 5.36 20.719-1.522 5.31 1.548 10.847 6.857 12.369.921.264 1.848.39 2.76.39 4.348 0 8.35-2.859 9.608-7.247 4.113-14.349.111-29.818-10.443-40.373l-13.148-13.147c10.321-2.162 20.4-5.242 30.117-9.194l69.643 8.307c5.986.714 11.97 1.067 17.927 1.067 30.775 0 60.797-9.437 86.232-27.302 7.874-1.388 15.878-4.204 23.905-9.101 4.714-2.876 6.204-9.03 3.327-13.745-2.875-4.713-9.026-6.206-13.745-3.327-15.123 9.227-30.063 8.7-49.803 3.866-6.49-26.457-5.159-43.518 15.257-63.934 19.806-19.806 49.327-34.661 72.71-38.175l-44.556 44.556c-3.905 3.905-3.905 10.237 0 14.143 1.953 1.952 4.512 2.929 7.071 2.929s5.118-.977 7.071-2.929l44.56-44.56c-.821 5.467-2.274 11.343-4.347 17.461-1.772 5.23 1.03 10.908 6.261 12.681 5.231 1.771 10.907-1.031 12.681-6.261 6.434-18.988 7.894-36.206 4.221-49.797zm-169.021-10.069c.431 42.145-15.741 81.765-45.537 111.561-24.877 24.879-57.432 40.548-92.229 44.53-1.222-1.855-2.638-3.602-4.245-5.209l-32.5-32.501c-1.553-1.553-3.227-2.914-4.988-4.09 3.992-34.773 19.659-67.304 44.523-92.167 29.409-29.409 69.208-45.542 110.739-45.542 12.998.132 24.105 10.421 24.237 23.418zm-132.111-135.442c19.804-19.804 49.328-34.653 72.707-38.171l-44.553 44.553c-3.905 3.905-3.905 10.237 0 14.143 1.953 1.952 4.512 2.929 7.071 2.929s5.119-.977 7.071-2.929l44.558-44.558c-3.513 23.381-18.369 52.907-38.175 72.712-20.416 20.416-37.479 21.747-63.936 15.256-6.49-26.458-5.16-43.519 15.257-63.935zm-43.938 129.408c-2.618-21.954.367-43.9 8.466-64.016.722 3.142 1.519 6.263 2.355 9.358.928 3.435 3.611 6.117 7.046 7.046 8.085 2.184 16.333 4.127 24.733 5.03-9.65 17.839-15.424 37.504-16.923 57.88-7.765 7.925-14.72 16.516-20.792 25.648zm-122.312 245.261c-1.368.371-2.844-.021-3.849-1.026l-17.417-17.417c-1.647-1.647-1.24-3.438-.85-4.359s1.355-2.479 3.722-2.425l22.658.352c1.441 5.637 4.367 10.806 8.588 15.027l5.008 5.008zm58.693 58.007c-.92.388-2.711.798-4.36-.851l-17.417-17.416c-1.005-1.005-1.398-2.48-1.026-3.851l4.841-17.859 4.622 4.622c4.404 4.403 9.758 7.292 15.408 8.666l.356 22.967c.037 2.329-1.503 3.331-2.424 3.722zm18.945-49.497c-5.002 5.001-13.142 5.003-18.143 0l-32.501-32.501c-2.423-2.423-3.757-5.645-3.757-9.071s1.334-6.648 3.757-9.071c2.501-2.501 5.786-3.752 9.072-3.752 3.285 0 6.571 1.251 9.071 3.752l32.5 32.501c5.003 5.001 5.003 13.14.001 18.142zm32.285-32.286c-5.002 5.002-13.142 5.002-18.143 0l-32.5-32.501c-2.423-2.423-3.758-5.645-3.758-9.071s1.334-6.648 3.757-9.071c2.501-2.501 5.786-3.752 9.072-3.752 3.285 0 6.571 1.251 9.071 3.752l32.5 32.501c2.423 2.423 3.757 5.645 3.757 9.071s-1.333 6.649-3.756 9.071zm32.286-32.285c-5.001 5-13.138 5.003-18.14.003l-32.503-32.504c-2.423-2.423-3.758-5.645-3.758-9.071s1.334-6.648 3.757-9.071c2.501-2.501 5.786-3.752 9.072-3.752 3.285 0 6.571 1.251 9.071 3.752l32.5 32.501c2.423 2.423 3.757 5.645 3.757 9.071s-1.334 6.648-3.756 9.071zm202.783-38.996c-20.116 8.098-42.062 11.084-64.013 8.464l-40.944-4.883c9.132-6.072 17.723-13.027 25.648-20.792 20.378-1.499 40.043-7.273 57.881-16.924.902 8.4 2.843 16.649 5.027 24.733.929 3.436 3.611 6.118 7.046 7.047 3.049.823 6.172 1.625 9.355 2.355z"/><path id="XMLID_820_" d="m475.746 281.15c-2.63 0-5.21 1.06-7.07 2.93-1.859 1.86-2.93 4.44-2.93 7.07s1.07 5.199 2.93 7.069c1.86 1.86 4.44 2.931 7.07 2.931 2.64 0 5.21-1.07 7.08-2.931 1.86-1.87 2.92-4.439 2.92-7.069s-1.06-5.21-2.92-7.07c-1.87-1.871-4.44-2.93-7.08-2.93z"/></g></g></svg>