<?xml version="1.0" encoding="iso-8859-1"?>
<!-- Generator: Adobe Illustrator 19.0.0, SVG Export Plug-In . SVG Version: 6.00 Build 0)  -->
<svg version="1.1" id="Layer_1" xmlns="http://www.w3.org/2000/svg" xmlns:xlink="http://www.w3.org/1999/xlink" x="0px" y="0px"
	 viewBox="0 0 512.001 512.001" style="enable-background:new 0 0 512.001 512.001;" xml:space="preserve">
<g>
	<g>
		<path d="M397.081,58.319c-23.656-31.298-58.085-51.51-96.943-56.913c-26.43-3.676-53.303-0.113-77.722,10.296
			c-0.15,0.064-0.289,0.141-0.434,0.211C145.681,17.113,85.188,80.84,85.188,158.439c0,76.861,61.623,167.568,113.319,230.127
			c25.541,30.909,54.322,61.64,81.038,86.529c39.616,36.907,47.886,36.907,51.418,36.907c3.774,0,9.317-1.093,14.782-6.112
			c10.924-8.327,27.848-31.836,48.781-138.827c12.5-63.884,22.188-135.775,27.976-178.728c1.094-8.129,2.059-15.28,2.884-21.222
			C430.789,128.254,420.737,89.617,397.081,58.319z M354.874,371.002c-2.337,36.847-5.789,66.054-10.263,86.808
			c-4.696,21.781-9.515,29.622-11.977,32.37c-0.426,0.25-0.655,0.309-0.658,0.311c-0.966,0.413-1.55,0.165-2.074-0.078
			c-15.305-9.159-68.074-56.386-119.683-119.731c-67.473-82.817-104.633-158.195-104.633-212.244
			c0-69.741,56.738-126.479,126.479-126.479s126.479,56.738,126.479,126.479c0,6.021,0.031,13.264,0.065,21.495
			C358.805,226.271,359.133,303.825,354.874,371.002z M405.182,164.304c-0.829,5.966-1.798,13.145-2.898,21.307
			c-5.56,41.259-14.486,107.489-26.012,168.345c3.202-63.211,2.912-132.264,2.734-174.105c-0.034-8.199-0.064-15.412-0.064-21.41
			c0-63.32-40.277-117.409-96.556-137.996c4.981,0.1,9.97,0.476,14.941,1.167c33.461,4.654,63.108,22.058,83.479,49.009
			C401.179,97.571,409.835,130.841,405.182,164.304z"/>
	</g>
</g>
<g>
	<g>
		<path d="M193.859,275.641c-29.397-43.736-44.935-82.542-44.935-112.225c0-5.632-4.566-10.199-10.199-10.199
			s-10.199,4.567-10.199,10.199c0,34.233,16.285,75.82,48.403,123.604c1.969,2.929,5.192,4.511,8.475,4.511
			c1.956,0,3.934-0.562,5.68-1.735C195.758,286.653,197.001,280.315,193.859,275.641z"/>
	</g>
</g>
<g>
	<g>
		<path d="M179.892,81.636c-3.755-4.2-10.201-4.562-14.402-0.808c-10.877,9.721-19.605,21.287-25.944,34.375
			c-2.456,5.069-0.337,11.169,4.734,13.625c1.432,0.694,2.948,1.022,4.439,1.022c3.787,0,7.425-2.118,9.187-5.757
			c5.172-10.679,12.297-20.119,21.179-28.057C183.284,92.283,183.645,85.836,179.892,81.636z"/>
	</g>
</g>
<g>
	<g>
		<path d="M329.369,443.69l-33.336-86.674c-2.022-5.257-7.921-7.878-13.181-5.858c-5.257,2.021-7.881,7.923-5.858,13.181
			l33.336,86.674c1.559,4.054,5.423,6.541,9.521,6.541c1.217,0,2.455-0.22,3.66-0.683
			C328.769,454.849,331.393,448.948,329.369,443.69z"/>
	</g>
</g>
<g>
</g>
<g>
</g>
<g>
</g>
<g>
</g>
<g>
</g>
<g>
</g>
<g>
</g>
<g>
</g>
<g>
</g>
<g>
</g>
<g>
</g>
<g>
</g>
<g>
</g>
<g>
</g>
<g>
</g>
</svg>
