<svg height="511pt" viewBox="-80 0 511 511.99982" width="511pt" xmlns="http://www.w3.org/2000/svg"><path d="m72.070312 239.074219c1.851563 3.207031 5.210938 5 8.667969 5 1.695313 0 3.417969-.433594 4.992188-1.34375 4.78125-2.761719 6.417969-8.878907 3.65625-13.660157l-.230469-.402343c-2.761719-4.78125-8.878906-6.421875-13.664062-3.65625-4.78125 2.761719-6.417969 8.878906-3.65625 13.660156zm0 0"/><path d="m350.292969 423.292969-32.75-56.726563 6.53125-3.769531c2.296875-1.324219 3.972656-3.507813 4.660156-6.070313.683594-2.5625.324219-5.292968-1-7.589843l-18.28125-31.660157 2.46875-1.425781c11.007813-6.355469 14.796875-20.484375 8.4375-31.492187l-14.859375-25.742188 6.605469-18.65625c8.339843-23.554687 5.957031-49.472656-6.535157-71.109375l-82.289062-142.527343c-14.628906-25.339844-47.148438-34.054688-72.496094-19.421876l-113.523437 65.542969c-12.277344 7.085938-21.058594 18.53125-24.726563 32.222657-3.667968 13.695312-1.789062 27.996093 5.300782 40.273437l33.480468 57.984375c2.761719 4.78125 8.878906 6.425781 13.660156 3.660156 4.78125-2.761718 6.421876-8.875 3.660157-13.660156l-33.480469-57.984375c-4.417969-7.648437-5.589844-16.5625-3.304688-25.09375 2.289063-8.535156 7.761719-15.664063 15.410157-20.082031l113.523437-65.542969c15.792969-9.117187 36.058594-3.6875 45.179688 12.101563l82.285156 142.527343c9.5625 16.5625 11.386719 36.402344 5.003906 54.433594l-6.914062 19.523437-103.890625 59.984376-20.367188-3.777344c-18.804687-3.484375-35.074219-14.984375-44.636719-31.550782l-8.808593-15.25c-2.761719-4.78125-8.875-6.421874-13.660157-3.660156-4.78125 2.761719-6.421874 8.875-3.660156 13.660156l8.808594 15.25c12.492188 21.640626 33.746094 36.664063 58.3125 41.214844l19.460938 3.609375 14.863281 25.738281c3.078125 5.335938 8.050781 9.152344 14 10.746094 1.984375.53125 4 .792969 6.003906.792969 3.992187 0 7.9375-1.046875 11.488281-3.097656l2.46875-1.425781 18.277344 31.660156c1.855469 3.207031 5.214844 5.003906 8.671875 5.003906 1.695313 0 3.414063-.433594 4.992187-1.34375l6.527344-3.769531 19.691406 34.109375c-4.101562-.761719-8.296874-1.164063-12.558593-1.164063-18.164063 0-35.238281 7.070313-48.085938 19.914063-1.503906 1.507812-3.511719 2.335937-5.65625 2.335937-2.140625 0-4.148437-.828125-5.65625-2.335937-12.84375-12.84375-29.921875-19.914063-48.085937-19.914063-18.164063 0-35.238282 7.070313-48.085938 19.917969-1.53125 1.53125-3.488281 2.339844-5.65625 2.339844-2.167968 0-4.121094-.808594-5.65625-2.34375-26.511718-26.511719-69.652344-26.511719-96.171875.003906-11.695312 11.695312-11.695312 30.726562 0 42.425781 11.699219 11.699219 30.730469 11.699219 42.433594 0 1.503906-1.507812 3.511719-2.335937 5.652344-2.335937 2.144531 0 4.152343.828125 5.660156 2.335937 12.84375 12.84375 29.917969 19.917969 48.082031 19.917969 18.164063 0 35.242188-7.074219 48.089844-19.917969 1.53125-1.53125 3.484375-2.34375 5.652344-2.34375 2.167968 0 4.125.8125 5.660156 2.34375 12.824219 12.828125 29.902344 19.890625 48.082031 19.890625 18.183594 0 35.261719-7.066406 48.085938-19.890625 1.507812-1.507812 3.515625-2.335937 5.65625-2.335937s4.148437.828125 5.65625 2.335937c11.695312 11.699219 30.730469 11.699219 42.429687 0 9.949219-9.949219 11.429688-25.207031 4.449219-36.742187l19.929687-11.507813c3.480469-2.007812 5.96875-5.25 7.007813-9.132812 1.039063-3.878907.503906-7.929688-1.503906-11.40625zm-138.355469-73.640625c-.558594-.148438-1.332031-.519532-1.855469-1.425782l-12.167969-21.070312 46.480469-26.835938 46.480469-26.832031 12.167969 21.070313c.84375 1.457031.339843 3.332031-1.117188 4.171875l-87.671875 50.617187c-.90625.519532-1.761718.453125-2.316406.304688zm45.382812 28.589844-13.277343-23 48.089843-27.765626 13.28125 23-10.886718 6.285157h-.003906l-26.308594 15.191406h-.003906zm48.945313 99.699218c-3.898437 3.898438-10.242187 3.898438-14.140625 0-5.28125-5.285156-12.3125-8.195312-19.800781-8.195312-7.484375 0-14.515625 2.910156-19.796875 8.195312-9.050782 9.046875-21.105469 14.027344-33.945313 14.03125-12.835937 0-24.890625-4.984375-33.941406-14.03125-5.289063-5.289062-12.320313-8.203125-19.800781-8.203125-7.476563 0-14.511719 2.914063-19.796875 8.203125-9.066407 9.066406-21.121094 14.058594-33.945313 14.058594-12.820312 0-24.875-4.992188-33.941406-14.058594-5.28125-5.285156-12.3125-8.195312-19.800781-8.195312-7.484375 0-14.515625 2.910156-19.796875 8.195312-1.890625 1.886719-4.402344 2.929688-7.074219 2.929688-2.667969 0-5.179687-1.042969-7.070313-2.929688-3.898437-3.898437-3.898437-10.246094 0-14.144531 18.71875-18.714844 49.171876-18.714844 67.886719 0 5.285157 5.289063 12.316407 8.203125 19.800781 8.203125 7.480469 0 14.511719-2.914062 19.796876-8.203125 9.066406-9.066406 21.121093-14.058594 33.945312-14.058594 12.820312 0 24.875 4.992188 33.9375 14.058594 5.285156 5.28125 12.316406 8.191406 19.800781 8.191406s14.519531-2.90625 19.800781-8.191406c9.066407-9.066406 21.121094-14.058594 33.941407-14.058594 12.820312 0 24.875 4.992188 33.941406 14.058594 3.902344 3.898437 3.902344 10.242187 0 14.144531zm6.515625-38.722656-30.269531-52.425781 17.710937-10.226563 30.269532 52.425782zm0 0"/><path d="m178.226562 100.21875c2.761719 4.78125 8.875 6.421875 13.660157 3.660156 4.78125-2.761718 6.421875-8.875 3.660156-13.660156l-17.054687-29.542969c-1.328126-2.296875-3.511719-3.972656-6.074219-4.65625-2.5625-.691406-5.289063-.328125-7.589844.996094l-91.359375 52.75c-4.78125 2.761719-6.421875 8.875-3.660156 13.660156l77.246094 133.792969c1.324218 2.296875 3.507812 3.972656 6.070312 4.65625.855469.230469 1.722656.34375 2.589844.34375 1.738281 0 3.46875-.457031 5-1.339844l91.359375-52.75c2.296875-1.324218 3.972656-3.511718 4.660156-6.070312.6875-2.5625.328125-5.292969-1-7.589844l-20.1875-34.964844c-2.761719-4.78125-8.878906-6.421875-13.660156-3.660156-4.785157 2.761719-6.421875 8.875-3.660157 13.660156l15.1875 26.304688-74.039062 42.746094-67.246094-116.46875 74.042969-42.75zm0 0"/><path d="m213.980469 136.964844c1.859375-1.855469 2.921875-4.4375 2.921875-7.078125 0-2.628907-1.0625-5.210938-2.921875-7.070313-1.867188-1.859375-4.4375-2.917968-7.070313-2.917968-2.640625 0-5.21875 1.058593-7.078125 2.917968-1.859375 1.871094-2.933593 4.441406-2.933593 7.070313 0 2.640625 1.070312 5.210937 2.933593 7.078125 1.871094 1.863281 4.449219 2.921875 7.078125 2.921875 2.621094 0 5.203125-1.058594 7.070313-2.921875zm0 0"/></svg>