<?xml version="1.0" encoding="iso-8859-1"?>
<!-- Generator: Adobe Illustrator 19.0.0, SVG Export Plug-In . SVG Version: 6.00 Build 0)  -->
<svg xmlns="http://www.w3.org/2000/svg" xmlns:xlink="http://www.w3.org/1999/xlink" version="1.1" id="Layer_1" x="0px" y="0px" viewBox="0 0 512.417 512.417" style="enable-background:new 0 0 512.417 512.417;" xml:space="preserve" width="512" height="512">
<g>
	<path d="M368.571,379.771c-29.242,29.242-29.242,76.823,0,106.065c29.241,29.242,76.823,29.244,106.066,0   c29.242-29.242,29.242-76.823,0-106.065C445.395,350.527,397.813,350.527,368.571,379.771z M453.424,464.623   c-17.547,17.545-46.094,17.545-63.641,0c-17.545-17.545-17.545-46.094,0-63.64c17.547-17.546,46.093-17.545,63.641,0   C470.969,418.529,470.969,447.078,453.424,464.623z"/>
	<path d="M376.319,32.159c-60.736,21.057-147.533,60.554-216.119,129.14C91.603,229.895,52.376,316.433,31.549,376.95   C9.04,442.351,2.692,491.171,2.433,493.218L0,512.417c126.703-16.054,262.376-71.458,351.117-160.199   C440.421,262.914,495.846,126.37,512.416,0C471.658,5.347,432.583,12.653,376.319,32.159z M181.412,182.512   C254.256,109.668,360.203,61.79,461.267,39.078c-20.442,28.215-41.914,56.082-64.298,83.481c-1.102-1.258-2.234-2.495-3.425-3.686   c-29.242-29.242-76.823-29.244-106.065,0c-16.84,16.84-24.53,40.169-21.212,63.672c-22.567-3.198-46.321,3.86-63.641,21.181   c-17.32,17.32-24.377,41.074-21.18,63.64c-23.453-3.312-46.798,4.338-63.673,21.212c-29.31,29.309-29.315,76.753,0,106.066   c1.157,1.157,2.357,2.257,3.577,3.33c-27.099,22.104-54.654,43.316-82.549,63.522C60.982,361.21,108.446,255.478,181.412,182.512z    M144.922,378.425c-2.103-1.484-4.089-3.147-5.936-4.995c-17.586-17.586-17.588-46.051,0-63.639   c17.592-17.591,46.056-17.585,63.641,0.001c3.165,3.165,5.824,6.789,7.912,10.707C189.048,340.352,167.153,359.682,144.922,378.425   z M235.531,297.006c-4.299-2.155-8.261-4.997-11.693-8.428c-17.545-17.545-17.545-46.095,0-63.64   c17.548-17.546,46.096-17.545,63.64,0c3.44,3.44,6.287,7.413,8.444,11.723C276.238,257.203,256.087,277.338,235.531,297.006z    M319.451,211.666c-3.939-2.092-7.581-4.762-10.76-7.941c-17.586-17.587-17.588-46.051,0-63.64   c17.546-17.545,46.096-17.544,63.64,0c1.877,1.877,3.565,3.896,5.066,6.035C358.646,168.329,339.31,190.2,319.451,211.666z    M329.905,331.004c-65.793,65.793-156.9,109.909-245.891,134.381C225.861,358.459,357.926,226.437,464.912,84.611   C440,174.084,395.58,265.329,329.905,331.004z"/>
</g>















</svg>
