<svg xmlns="http://www.w3.org/2000/svg" viewBox="0 0 20 20.79"><g id="Layer_2" data-name="Layer 2"><g id="Layer_1-2" data-name="Layer 1"><path d="M2.74,16l.12.12,3.27,3.27a.81.81,0,0,1,.18,1,.79.79,0,0,1-1.16.29,1.12,1.12,0,0,1-.2-.18L.25,15.78a.81.81,0,0,1,0-1.17L5,9.86a.79.79,0,0,1,1.34.29.8.8,0,0,1-.24.87L2.86,14.26a.73.73,0,0,0-.1.13h.1c3.84,0,7.68,0,11.52,0a3.91,3.91,0,0,0,3.53-2.08,3.72,3.72,0,0,0,.49-1.81c0-1.41,0-2.81,0-4.22V.85A.8.8,0,0,1,19.1,0,.79.79,0,0,1,20,.8v9.54a5.6,5.6,0,0,1-4.32,5.5,5.38,5.38,0,0,1-1.33.16H2.74Z"/></g></g></svg>