<?xml version="1.0" encoding="utf-8"?>
<!-- Generator: Adobe Illustrator 24.2.1, SVG Export Plug-In . SVG Version: 6.00 Build 0)  -->
<svg version="1.1" id="Layer_1" xmlns="http://www.w3.org/2000/svg" xmlns:xlink="http://www.w3.org/1999/xlink" x="0px" y="0px"
	 viewBox="0 0 512 512" style="enable-background:new 0 0 512 512;" xml:space="preserve">
<path d="M301,421.2C21.6,409.6,21.7,11.5,301,0c56.3,0,109.1,21.8,148.9,61.5C582.2,192.4,486.9,421.7,301,421.2L301,421.2z
	 M301,39.9c-94.1,0-170.7,76.6-170.7,170.7c9.5,226.6,332.1,226.3,341.3-0.4C471.6,116.3,395.1,39.9,301,39.9z M20.5,512
	c-5.1,0-10.3-2-14.2-5.9c-7.8-7.8-7.7-20.5,0.1-28.2l89.8-89.3c7.8-7.8,20.5-7.7,28.2,0.1c7.8,7.8,7.7,20.5-0.1,28.2l-89.8,89.3
	C30.7,510.1,25.6,512,20.5,512z"/>
</svg>
