<?xml version="1.0" encoding="iso-8859-1"?>
<!-- Generator: Adobe Illustrator 19.0.0, SVG Export Plug-In . SVG Version: 6.00 Build 0)  -->
<svg version="1.1" id="Capa_1" xmlns="http://www.w3.org/2000/svg" xmlns:xlink="http://www.w3.org/1999/xlink" x="0px" y="0px"
	 viewBox="0 0 512 512" style="enable-background:new 0 0 512 512;" xml:space="preserve">
<g>
	<g>
		<path d="M460.448,209.264C437.536,115.28,353.824,47.984,256,47.984S74.464,115.28,51.552,209.264
			C22.208,215.088,0,240.976,0,272.016c0,24.192,13.632,45.024,33.504,55.904l12.832,51.232
			c12.448,49.984,57.12,84.864,108.608,84.864h202.08c51.488,0,96.16-34.88,108.64-84.832l12.832-51.232
			C498.368,317.04,512,296.208,512,272.016C512,240.976,489.792,215.088,460.448,209.264z M256,79.984
			c79.904,0,148.608,52.96,171.04,128.032H84.96C107.392,132.944,176.096,79.984,256,79.984z M434.656,371.408
			c-8.928,35.68-40.832,60.608-77.6,60.608H154.944c-36.768,0-68.672-24.928-77.6-60.608l-8.832-35.392h68.864l59.328,59.328
			c3.104,3.104,7.2,4.672,11.296,4.672s8.192-1.568,11.328-4.672l59.296-59.328h164.864L434.656,371.408z M182.624,336.016h50.752
			L208,361.392L182.624,336.016z M448,304.016H64c-17.632,0-32-14.368-32-32c0-17.632,14.368-32,32-32h384c17.632,0,32,14.368,32,32
			C480,289.648,465.632,304.016,448,304.016z"/>
	</g>
</g>
<g>
	<g>
		<path d="M240.64,144.016h-0.32c-8.832,0-15.84,7.168-15.84,16c0,8.832,7.328,16,16.16,16c8.832,0,16-7.168,16-16
			C256.64,151.184,249.472,144.016,240.64,144.016z"/>
	</g>
</g>
<g>
	<g>
		<path d="M304.64,144.016h-0.32c-8.832,0-15.84,7.168-15.84,16c0,8.832,7.328,16,16.16,16c8.832,0,16-7.168,16-16
			C320.64,151.184,313.472,144.016,304.64,144.016z"/>
	</g>
</g>
<g>
	<g>
		<path d="M272.64,112.016h-0.32c-8.832,0-15.84,7.168-15.84,16c0,8.832,7.328,16,16.16,16c8.832,0,16-7.168,16-16
			C288.64,119.184,281.472,112.016,272.64,112.016z"/>
	</g>
</g>
<g>
</g>
<g>
</g>
<g>
</g>
<g>
</g>
<g>
</g>
<g>
</g>
<g>
</g>
<g>
</g>
<g>
</g>
<g>
</g>
<g>
</g>
<g>
</g>
<g>
</g>
<g>
</g>
<g>
</g>
</svg>
