<svg xmlns="http://www.w3.org/2000/svg" xmlns:xlink="http://www.w3.org/1999/xlink" width="2200" height="1080" viewBox="0 0 2200 1080">
  <defs>
    <clipPath id="clip-path">
      <rect id="Rectángulo_4" data-name="Rectángulo 4" width="2200" height="1080" fill="#f8fbfb" stroke="#707070" stroke-width="1"/>
    </clipPath>
  </defs>
  <g id="Enmascarar_grupo_3" data-name="Enmascarar grupo 3" clip-path="url(#clip-path)">
    <g id="celulas" transform="translate(624.6)">
      <path id="Trazado_23" data-name="Trazado 23" d="M475.417,343.7a16.3,16.3,0,0,1-16.3-16.3V108.625a16.3,16.3,0,0,1,32.6,0V327.4A16.3,16.3,0,0,1,475.417,343.7Zm0,0" fill="#e4eaf8"/>
      <path id="Trazado_24" data-name="Trazado 24" d="M533.261,57.851A57.847,57.847,0,1,1,475.418,0,57.851,57.851,0,0,1,533.261,57.851Zm0,0" fill="#ffc850"/>
      <path id="Trazado_25" data-name="Trazado 25" d="M475.417,986.414a16.3,16.3,0,0,1-16.3-16.306V752.15a16.3,16.3,0,0,1,32.6,0V970.107A16.3,16.3,0,0,1,475.417,986.414Zm0,0" fill="#e4eaf8"/>
      <path id="Trazado_26" data-name="Trazado 26" d="M533.261,1022.148A57.847,57.847,0,1,1,475.418,964.3,57.845,57.845,0,0,1,533.261,1022.148Zm0,0" fill="#ffc850"/>
      <path id="Trazado_27" data-name="Trazado 27" d="M80.107,768.232a16.3,16.3,0,0,1,5.966-22.264l195.1-112.646a16.3,16.3,0,1,1,16.306,28.229L102.371,774.2a16.3,16.3,0,0,1-22.264-5.966Zm0,0" fill="#e4eaf8"/>
      <path id="Trazado_28" data-name="Trazado 28" d="M107.957,752.132a57.847,57.847,0,1,0-21.176,79.019,57.853,57.853,0,0,0,21.176-79.019Zm0,0" fill="#ffc850"/>
      <path id="Trazado_29" data-name="Trazado 29" d="M636.24,447.145a16.3,16.3,0,0,1,5.966-22.264L854.3,302.431a16.3,16.3,0,0,1,16.3,28.229L658.5,453.111A16.3,16.3,0,0,1,636.24,447.145Zm0,0" fill="#e4eaf8"/>
      <path id="Trazado_30" data-name="Trazado 30" d="M943.039,269.992a57.849,57.849,0,1,0-21.168,79.027,57.839,57.839,0,0,0,21.168-79.027Zm0,0" fill="#ffc850"/>
      <g id="Grupo_65" data-name="Grupo 65">
        <path id="Trazado_31" data-name="Trazado 31" d="M482.4,57.851A57.791,57.791,0,0,1,507.831,9.929a57.851,57.851,0,1,0,0,95.845A57.79,57.79,0,0,1,482.4,57.851Zm0,0" fill="#feb644"/>
        <path id="Trazado_32" data-name="Trazado 32" d="M482.4,1022.148a57.764,57.764,0,0,1,25.436-47.914,57.847,57.847,0,1,0,0,95.837,57.79,57.79,0,0,1-25.436-47.922Zm0,0" fill="#feb644"/>
        <path id="Trazado_33" data-name="Trazado 33" d="M72.592,810A57.843,57.843,0,0,1,90.3,733.164a57.854,57.854,0,1,0-3.519,98.012c1.195-.692,2.348-1.434,3.477-2.192A57.558,57.558,0,0,1,72.592,810Zm0,0" fill="#feb644"/>
        <path id="Trazado_34" data-name="Trazado 34" d="M907.7,327.852a57.843,57.843,0,0,1,17.707-76.836,57.854,57.854,0,1,0-3.51,98.012c1.195-.692,2.34-1.434,3.469-2.192A57.638,57.638,0,0,1,907.7,327.852Zm0,0" fill="#feb644"/>
      </g>
      <path id="Trazado_35" data-name="Trazado 35" d="M667.181,419.981,483.476,313.919a16.093,16.093,0,0,0-16.117,0L283.645,419.981a16.115,16.115,0,0,0-8.058,13.958V646.064a16.138,16.138,0,0,0,8.058,13.966L467.359,766.093a16.133,16.133,0,0,0,16.117,0L667.181,660.031a16.128,16.128,0,0,0,8.058-13.966V433.939a16.115,16.115,0,0,0-8.058-13.958Zm0,0" fill="#ffc850"/>
      <path id="Trazado_36" data-name="Trazado 36" d="M348.838,660.019a16.115,16.115,0,0,1-8.058-13.958V433.936a16.115,16.115,0,0,1,8.058-13.958l159.175-91.9-24.538-14.164a16.093,16.093,0,0,0-16.117,0L283.645,419.978a16.115,16.115,0,0,0-8.058,13.958V646.061a16.115,16.115,0,0,0,8.058,13.958L467.358,766.09a16.133,16.133,0,0,0,16.117,0l24.538-14.172Zm0,0" fill="#feb644"/>
      <path id="Trazado_37" data-name="Trazado 37" d="M587.617,465.917,483.475,405.783a16.133,16.133,0,0,0-16.117,0L363.216,465.917a16.105,16.105,0,0,0-8.067,13.958V600.126a16.105,16.105,0,0,0,8.067,13.958l104.142,60.134a16.133,16.133,0,0,0,16.117,0l104.142-60.134a16.115,16.115,0,0,0,8.058-13.958V479.875a16.115,16.115,0,0,0-8.058-13.958Zm0,0" fill="#feb644"/>
      <path id="Trazado_38" data-name="Trazado 38" d="M428.41,614.083a16.115,16.115,0,0,1-8.058-13.958V479.875a16.115,16.115,0,0,1,8.058-13.958l79.6-45.961-24.538-14.164a16.133,16.133,0,0,0-16.117,0L363.217,465.916a16.125,16.125,0,0,0-8.058,13.958V600.133a16.094,16.094,0,0,0,8.058,13.95l104.142,60.134a16.133,16.133,0,0,0,16.117,0l24.538-14.172Zm0,0" fill="#f9972d"/>
    </g>
  </g>
  <g id="lista" transform="translate(1355.996 505)">
    <path id="Trazado_39" data-name="Trazado 39" d="M314.445,42.156H22.754A22.754,22.754,0,0,0,0,64.91V489.246A22.754,22.754,0,0,0,22.754,512H314.445A22.754,22.754,0,0,0,337.2,489.246V64.91a22.754,22.754,0,0,0-22.754-22.754Zm0,0" fill="#e4eaf8"/>
    <path id="Trazado_40" data-name="Trazado 40" d="M30.906,489.246V64.91A22.754,22.754,0,0,1,53.66,42.156H22.754A22.754,22.754,0,0,0,0,64.91V489.246A22.754,22.754,0,0,0,22.754,512H53.66a22.754,22.754,0,0,1-22.754-22.754Zm0,0" fill="#d8dce5"/>
    <path id="Trazado_41" data-name="Trazado 41" d="M141.906,249.484a44.2,44.2,0,1,1-44.2-44.2A44.2,44.2,0,0,1,141.906,249.484Zm0,0" fill="#6fd844"/>
    <path id="Trazado_42" data-name="Trazado 42" d="M84.418,249.484A44.209,44.209,0,0,1,113.16,208.07a44.2,44.2,0,1,0,0,82.832,44.21,44.21,0,0,1-28.742-41.418Zm0,0" fill="#5fbf32"/>
    <path id="Trazado_43" data-name="Trazado 43" d="M141.906,389.285a44.2,44.2,0,1,1-44.2-44.2A44.2,44.2,0,0,1,141.906,389.285Zm0,0" fill="#6fd844"/>
    <path id="Trazado_44" data-name="Trazado 44" d="M84.418,389.285a44.209,44.209,0,0,1,28.742-41.414,44.2,44.2,0,1,0,0,82.832,44.214,44.214,0,0,1-28.742-41.418Zm0,0" fill="#5fbf32"/>
    <path id="Trazado_45" data-name="Trazado 45" d="M285.852,222.262H175.973a7.727,7.727,0,0,1,0-15.453H285.852a7.727,7.727,0,0,1,0,15.453Zm0,0" fill="#c3c8d1"/>
    <path id="Trazado_46" data-name="Trazado 46" d="M223.539,155.77H113.66a7.727,7.727,0,0,1,0-15.453H223.539a7.727,7.727,0,0,1,0,15.453Zm0,0" fill="#c3c8d1"/>
    <path id="Trazado_47" data-name="Trazado 47" d="M285.852,257.215H175.973a7.729,7.729,0,0,1,0-15.457H285.852a7.729,7.729,0,0,1,0,15.457Zm0,0" fill="#d8dce5"/>
    <path id="Trazado_48" data-name="Trazado 48" d="M285.852,292.164H175.973a7.727,7.727,0,0,1,0-15.453H285.852a7.727,7.727,0,0,1,0,15.453Zm0,0" fill="#d8dce5"/>
    <path id="Trazado_49" data-name="Trazado 49" d="M285.852,362.063H175.973a7.727,7.727,0,1,1,0-15.453H285.852a7.727,7.727,0,0,1,0,15.453Zm0,0" fill="#c3c8d1"/>
    <path id="Trazado_50" data-name="Trazado 50" d="M285.852,397.012H175.973a7.727,7.727,0,1,1,0-15.453H285.852a7.727,7.727,0,0,1,0,15.453Zm0,0" fill="#d8dce5"/>
    <path id="Trazado_51" data-name="Trazado 51" d="M285.852,431.965H175.973a7.729,7.729,0,0,1,0-15.457H285.852a7.729,7.729,0,0,1,0,15.457Zm0,0" fill="#d8dce5"/>
    <path id="Trazado_52" data-name="Trazado 52" d="M88.844,268.23,75.133,254.519a7.727,7.727,0,0,1,10.926-10.93l8.246,8.25,16.707-16.707a7.727,7.727,0,1,1,10.926,10.93L99.77,268.23a7.732,7.732,0,0,1-10.926,0Zm0,0" fill="#e4eaf8"/>
    <path id="Trazado_53" data-name="Trazado 53" d="M94.309,410.293c-4.145,0-4.535-1.332-19.176-15.977a7.727,7.727,0,0,1,10.93-10.926l8.246,8.246,16.7-16.7a7.726,7.726,0,1,1,10.926,10.926C98.234,409.566,98.574,410.293,94.309,410.293Zm0,0" fill="#e4eaf8"/>
    <path id="Trazado_54" data-name="Trazado 54" d="M63.027,0A15.494,15.494,0,0,0,47.535,15.492V77.105a15.494,15.494,0,0,0,30.988,0V15.492A15.5,15.5,0,0,0,63.027,0Zm0,0" fill="#ffc850"/>
    <path id="Trazado_55" data-name="Trazado 55" d="M70.3,77.105V15.492A15.417,15.417,0,0,1,74.41,5,15.479,15.479,0,0,0,47.535,15.492V77.105A15.479,15.479,0,0,0,74.41,87.594,15.409,15.409,0,0,1,70.3,77.105Zm0,0" fill="#feb644"/>
    <path id="Trazado_56" data-name="Trazado 56" d="M133.41,0a15.492,15.492,0,0,0-15.492,15.492V77.105a15.492,15.492,0,0,0,30.984,0V15.492A15.494,15.494,0,0,0,133.41,0Zm0,0" fill="#ffc850"/>
    <path id="Trazado_57" data-name="Trazado 57" d="M140.676,77.105V15.492A15.417,15.417,0,0,1,144.789,5a15.476,15.476,0,0,0-26.871,10.488V77.105a15.476,15.476,0,0,0,26.871,10.488,15.409,15.409,0,0,1-4.113-10.488Zm0,0" fill="#feb644"/>
    <path id="Trazado_58" data-name="Trazado 58" d="M203.789,0A15.494,15.494,0,0,0,188.3,15.492V77.105a15.492,15.492,0,1,0,30.984,0V15.492A15.489,15.489,0,0,0,203.789,0Zm0,0" fill="#ffc850"/>
    <path id="Trazado_59" data-name="Trazado 59" d="M211.059,77.105V15.492A15.417,15.417,0,0,1,215.172,5,15.479,15.479,0,0,0,188.3,15.492V77.105a15.479,15.479,0,0,0,26.875,10.488,15.409,15.409,0,0,1-4.113-10.488Zm0,0" fill="#feb644"/>
    <path id="Trazado_60" data-name="Trazado 60" d="M274.172,0A15.491,15.491,0,0,0,258.68,15.492V77.105a15.492,15.492,0,1,0,30.984,0V15.492A15.494,15.494,0,0,0,274.172,0Zm0,0" fill="#ffc850"/>
    <path id="Trazado_61" data-name="Trazado 61" d="M281.438,77.105V15.492A15.417,15.417,0,0,1,285.551,5,15.476,15.476,0,0,0,258.68,15.492V77.105a15.476,15.476,0,0,0,26.871,10.488,15.409,15.409,0,0,1-4.113-10.488Zm0,0" fill="#feb644"/>
  </g>
</svg>
